<svg width="49" height="36" viewBox="0 0 49 36" fill="none" xmlns="http://www.w3.org/2000/svg">
<path d="M25.7969 1.56811C29.7174 3.21315 32.9284 6.12549 34.8828 9.8089C36.8372 13.4923 37.4141 17.7189 36.5151 21.7685C35.6161 25.8181 33.2969 29.4401 29.9526 32.0175C26.6084 34.5948 22.446 35.968 18.1747 35.903C13.9034 35.8381 9.78751 34.339 6.52826 31.6612C3.26902 28.9834 1.0681 25.2926 0.30052 21.2177C-0.467059 17.1427 0.246193 12.9358 2.31875 9.31361C4.3913 5.69145 7.69492 2.8782 11.6667 1.3532L18.4643 18.0005L25.7969 1.56811Z" fill="#5199FF"/>
<ellipse cx="18.4644" cy="18.0051" rx="9.51191" ry="8.95238" fill="#5199FF"/>
<path d="M46.0821 8.98817C47.0634 9.49514 48.27 9.11058 48.777 8.12923C49.2839 7.14788 48.8994 5.94135 47.918 5.43438L46.0821 8.98817ZM20.3696 25.242C27.7376 28.9154 33.0885 29.7507 36.9946 28.2349C41.0021 26.6797 42.7376 22.9611 43.6463 19.5714C44.1093 17.8445 44.3957 16.0615 44.6319 14.4669C44.8759 12.8196 45.0583 11.4432 45.3155 10.3235C45.4416 9.77465 45.5696 9.36392 45.6979 9.0685C45.8303 8.76347 45.9176 8.68804 45.9026 8.70141C45.844 8.75345 45.7227 8.80696 45.622 8.80857C45.5791 8.80925 45.7108 8.79634 46.0821 8.98817L47.918 5.43438C47.1978 5.06229 46.3995 4.79562 45.558 4.80908C44.6589 4.82347 43.8706 5.15629 43.2465 5.71057C42.1594 6.67597 41.6963 8.21208 41.417 9.4281C41.1141 10.7473 40.9015 12.3526 40.6751 13.8808C40.4409 15.4618 40.1815 17.0482 39.7828 18.5356C38.968 21.5746 37.716 23.6643 35.5475 24.5058C33.2777 25.3867 29.2641 25.2069 22.1543 21.6623L20.3696 25.242Z" fill="#5199FF"/>
</svg>
