<svg width="24" height="25" viewBox="0 0 24 25" fill="none" xmlns="http://www.w3.org/2000/svg">
<path opacity="0.4" d="M1.44541 7.66806C1.90493 7.3617 2.5258 7.48588 2.83216 7.94541C2.85837 7.98285 2.93295 8.08911 2.98827 8.16407C3.099 8.31408 3.26659 8.53284 3.48708 8.79742C3.92916 9.32792 4.57785 10.0354 5.4009 10.7408C7.06276 12.1653 9.33801 13.5001 12.0001 13.5001C14.6622 13.5001 16.9371 12.1653 18.599 10.7408C19.422 10.0354 20.0707 9.32792 20.5128 8.79742C20.7333 8.53284 20.9009 8.31408 21.0116 8.16407C21.0669 8.08911 21.1415 7.98285 21.1677 7.94541C21.4741 7.48588 22.095 7.3617 22.5545 7.66806C23.014 7.97441 23.1382 8.59528 22.8318 9.05481L22.8262 9.06282C22.786 9.12027 22.6834 9.26696 22.6208 9.35177C22.4893 9.52988 22.2975 9.77987 22.0493 10.0778C21.5538 10.6723 20.8275 11.4648 19.9006 12.2594C18.0624 13.8349 15.338 15.5001 12.0001 15.5001C8.6622 15.5001 5.93746 13.8349 4.09931 12.2594C3.17236 11.4648 2.44606 10.6723 1.95064 10.0778C1.70237 9.77987 1.51059 9.52988 1.37913 9.35177C1.31336 9.26267 1.20337 9.10526 1.16806 9.05481C0.861703 8.59528 0.985876 7.97441 1.44541 7.66806Z" fill="black"/>
<path d="M2.92675 11.1602L1.29289 12.7941C0.90237 13.1846 0.90237 13.8178 1.29289 14.2083C1.68342 14.5988 2.31658 14.5988 2.70711 14.2083L4.40167 12.5137C4.29838 12.4292 4.19758 12.3448 4.09931 12.2605C3.66294 11.8865 3.27103 11.5129 2.92675 11.1602Z" fill="black"/>
<path d="M7.53764 14.4951L6.64254 15.987C6.35839 16.4606 6.51195 17.0748 6.98553 17.359C7.45911 17.6431 8.07337 17.4895 8.35752 17.016L9.4602 15.1782C8.78311 15.005 8.1412 14.7706 7.53764 14.4951Z" fill="black"/>
<path d="M14.5399 15.1781L15.6425 17.0159C15.9267 17.4894 16.5409 17.643 17.0145 17.3589C17.4881 17.0747 17.6416 16.4605 17.3575 15.9869L16.4624 14.4951C15.8588 14.7705 15.2169 15.005 14.5399 15.1781Z" fill="black"/>
<path d="M19.5983 12.5137L21.2929 14.2083C21.6834 14.5988 22.3166 14.5988 22.7071 14.2083C23.0976 13.8178 23.0976 13.1846 22.7071 12.7941L21.0732 11.1602C20.7289 11.5129 20.337 11.8865 19.9006 12.2605C19.8023 12.3447 19.7016 12.4292 19.5983 12.5137Z" fill="black"/>
</svg>
