<svg width="36" height="37" viewBox="0 0 36 37" fill="none" xmlns="http://www.w3.org/2000/svg">
<path opacity="0.4" d="M1.875 18.5C1.875 27.4056 9.09441 34.625 18 34.625C26.9056 34.625 34.125 27.4056 34.125 18.5C34.125 9.59441 26.9056 2.375 18 2.375C9.09441 2.375 1.875 9.59441 1.875 18.5Z" fill="black"/>
<path fill-rule="evenodd" clip-rule="evenodd" d="M17.5229 17.041C17.8934 17.0908 18.4061 17.2241 18.8411 17.6591C19.2761 18.0941 19.4094 18.6067 19.4592 18.9773C19.5005 19.2842 19.5002 19.6412 19.5 19.9409C19.5 19.961 19.5 19.9807 19.5 20V26C19.5 26.8285 18.8284 27.5 18 27.5C17.1716 27.5 16.5 26.8285 16.5 26V20C15.6716 20 15 19.3285 15 18.5C15 17.6716 15.6716 17 16.5 17C16.5194 17 16.5392 17 16.5591 17C16.859 16.9999 17.2158 16.9996 17.5229 17.041Z" fill="black"/>
<path fill-rule="evenodd" clip-rule="evenodd" d="M16.4999 12.5C16.4999 11.6716 17.1684 11 17.9931 11H18.0066C18.8313 11 19.4999 11.6716 19.4999 12.5C19.4999 13.3284 18.8313 14 18.0066 14H17.9931C17.1684 14 16.4999 13.3284 16.4999 12.5Z" fill="black"/>
</svg>
