<svg width="28" height="28" viewBox="0 0 28 28" fill="none" xmlns="http://www.w3.org/2000/svg">
<path fill-rule="evenodd" clip-rule="evenodd" d="M0 0H28V28H0V0ZM14 8.16634C14.6443 8.16634 15.1667 8.68868 15.1667 9.33301V13.9997C15.1667 14.644 14.6443 15.1663 14 15.1663C13.3557 15.1663 12.8333 14.644 12.8333 13.9997V9.33301C12.8333 8.68868 13.3557 8.16634 14 8.16634ZM14 17.5003C13.3557 17.5003 12.8333 18.0227 12.8333 18.667C12.8333 19.3113 13.3557 19.8337 14 19.8337H14.0117C14.656 19.8337 15.1783 19.3113 15.1783 18.667C15.1783 18.0227 14.656 17.5003 14.0117 17.5003H14Z" fill="black"/>
</svg>
