<svg width="24" height="24" viewBox="0 0 24 24" fill="none" xmlns="http://www.w3.org/2000/svg">
<path opacity="0.4" d="M16.7936 2.50301L16.8346 2.52812C17.6176 3.00659 18.5011 3.66927 19.4158 4.58398C20.3305 5.49869 20.9932 6.38223 21.4717 7.16514L21.4968 7.20622C21.7284 7.58497 21.9567 7.9583 22.0954 8.36889C22.2504 8.82756 22.2848 9.29409 22.216 9.87201C22.0676 11.1201 21.4102 11.7768 20.5103 12.6758C19.8951 13.2644 19.1256 14.0042 18.6761 14.3559C18.2074 14.7227 17.7467 14.9902 17.1984 15.1162C17.0848 15.1423 16.9701 15.1631 16.8546 15.1785C16.2969 15.2528 15.7717 15.1639 15.2041 14.9848C14.7636 14.8459 14.2617 14.6403 13.6714 14.3891L11.0312 17.0296C10.8906 17.1703 10.6998 17.2493 10.5008 17.2493H8.75082V18.9993C8.75082 19.4136 8.41503 19.7493 8.00082 19.7493H6.25018V21.5C6.25018 21.9142 5.9144 22.25 5.50018 22.25H2.50018C2.08597 22.25 1.75018 21.9142 1.75018 21.5V18.5C1.75018 18.3011 1.8292 18.1103 1.96985 17.9697L9.61087 10.3284C9.35967 9.73809 9.15406 9.23617 9.0151 8.79564C8.83604 8.22797 8.74706 7.70276 8.82145 7.14505C8.83685 7.02964 8.85761 6.915 8.88367 6.80153C9.00961 6.25315 9.27714 5.79251 9.64393 5.3237C9.9956 4.87421 10.7354 4.10475 11.324 3.48945C12.2229 2.5896 12.8796 1.93223 14.1278 1.78375C14.7057 1.715 15.1722 1.7494 15.6309 1.90436C16.0415 2.04308 16.4148 2.27139 16.7936 2.50301Z" fill="black"/>
<path fill-rule="evenodd" clip-rule="evenodd" d="M17.5305 6.46967C17.8234 6.76256 17.8234 7.23744 17.5305 7.53033L16.5305 8.53033C16.2377 8.82322 15.7628 8.82322 15.4699 8.53033C15.177 8.23744 15.177 7.76256 15.4699 7.46967L16.4699 6.46967C16.7628 6.17678 17.2377 6.17678 17.5305 6.46967Z" fill="black"/>
</svg>
