<svg width="25" height="24" viewBox="0 0 25 24" fill="none" xmlns="http://www.w3.org/2000/svg">
<path d="M17.2006 3.25H17.25H17.2994C17.9643 3.24996 18.5371 3.24993 18.9958 3.31161C19.4875 3.37771 19.9587 3.52677 20.341 3.90901C20.7232 4.29126 20.8723 4.76252 20.9384 5.25416C21.0001 5.71291 21 6.28577 21 6.95064V17.0494C21 17.7142 21.0001 18.2871 20.9384 18.7458C20.8723 19.2375 20.7232 19.7087 20.341 20.091C19.9587 20.4732 19.4875 20.6223 18.9958 20.6884C18.5371 20.7501 17.9642 20.75 17.2994 20.75H17.2006C16.5358 20.75 15.9629 20.7501 15.5042 20.6884C15.0125 20.6223 14.5413 20.4732 14.159 20.091C13.7768 19.7087 13.6277 19.2375 13.5616 18.7458C13.4999 18.2871 13.5 17.7143 13.5 17.0494V6.95063C13.5 6.28579 13.4999 5.71289 13.5616 5.25416C13.6277 4.76252 13.7768 4.29126 14.159 3.90901C14.5413 3.52677 15.0125 3.37771 15.5042 3.31161C15.9629 3.24993 16.5357 3.24996 17.2006 3.25Z" fill="black"/>
<path opacity="0.4" d="M7.20075 3.25H7.25012H7.29949C7.96433 3.24996 8.53723 3.24993 8.99596 3.31161C9.4876 3.37771 9.95886 3.52677 10.3411 3.90901C10.7233 4.29126 10.8724 4.76252 10.9385 5.25416C11.0002 5.71291 11.0001 6.28577 11.0001 6.95064V17.0494C11.0001 17.7142 11.0002 18.2871 10.9385 18.7458C10.8724 19.2375 10.7233 19.7087 10.3411 20.091C9.95886 20.4732 9.4876 20.6223 8.99596 20.6884C8.53722 20.7501 7.96436 20.75 7.29949 20.75H7.20075C6.53588 20.75 5.96302 20.7501 5.50428 20.6884C5.01264 20.6223 4.54138 20.4732 4.15913 20.091C3.77688 19.7087 3.62782 19.2375 3.56173 18.7458C3.50005 18.2871 3.50008 17.7143 3.50012 17.0494V6.95063C3.50008 6.28579 3.50005 5.71289 3.56173 5.25416C3.62782 4.76252 3.77688 4.29126 4.15913 3.90901C4.54138 3.52677 5.01264 3.37771 5.50428 3.31161C5.96301 3.24993 6.53591 3.24996 7.20075 3.25Z" fill="black"/>
</svg>
