<svg width="25" height="24" viewBox="0 0 25 24" fill="none" xmlns="http://www.w3.org/2000/svg">
<path d="M17.25 4H15.25C14.6977 4 14.25 4.44772 14.25 5V19C14.25 19.5523 14.6977 20 15.25 20H17.25C17.8023 20 18.25 19.5523 18.25 19V5C18.25 4.44772 17.8023 4 17.25 4Z" stroke="black" stroke-width="2" stroke-linecap="round" stroke-linejoin="round"/>
<path d="M9.25 4H7.25C6.69772 4 6.25 4.44772 6.25 5V19C6.25 19.5523 6.69772 20 7.25 20H9.25C9.80228 20 10.25 19.5523 10.25 19V5C10.25 4.44772 9.80228 4 9.25 4Z" stroke="black" stroke-width="2" stroke-linecap="round" stroke-linejoin="round"/>
</svg>
