<svg width="24" height="24" viewBox="0 0 24 24" fill="none" xmlns="http://www.w3.org/2000/svg">
<path opacity="0.4" d="M13.9405 6.33706C15.5735 7.26474 16.8567 7.99375 17.7709 8.66154C18.6913 9.33392 19.3721 10.0367 19.6159 10.9633C19.7947 11.6427 19.7947 12.3575 19.6159 13.0369C19.3721 13.9635 18.6913 14.6662 17.7709 15.3386C16.8567 16.0064 15.5735 16.7354 13.9406 17.6631C12.3632 18.5592 11.033 19.3149 10.0232 19.7445C9.0053 20.1774 8.07729 20.3969 7.17536 20.1413C6.51252 19.9534 5.90941 19.5969 5.42356 19.1067C4.76419 18.4415 4.49951 17.522 4.37429 16.4155C4.24998 15.317 4.24999 13.8791 4.25 12.0502V11.95C4.24999 10.1211 4.24998 8.68315 4.37429 7.5847C4.49951 6.47816 4.76419 5.55867 5.42356 4.89341C5.90941 4.40323 6.51252 4.04672 7.17536 3.85889C8.07729 3.60331 9.0053 3.82275 10.0232 4.25571C11.033 4.68522 12.3632 5.4409 13.9405 6.33706Z" fill="black"/>
<path d="M17.7713 8.66277C18.6918 9.33515 19.3725 10.038 19.6164 10.9645C19.7952 11.644 19.7952 12.3587 19.6164 13.0382C19.3725 13.9647 18.6918 14.6675 17.7713 15.3399C16.8572 16.0076 15.574 16.7366 13.9411 17.6643C12.3638 18.5605 11.0335 19.3162 10.0237 19.7457C9.00576 20.1786 8.07776 20.3981 7.17582 20.1425C6.51298 19.9547 5.90987 19.5982 5.42403 19.108C4.76465 18.4427 4.49997 17.5232 4.37475 16.4167C4.29889 15.7464 4.26933 14.9496 4.25781 14.0147L16.1055 7.58594C16.7533 7.97233 17.3094 8.32537 17.7713 8.66277Z" fill="black"/>
</svg>
