<svg width="38" height="39" viewBox="0 0 38 39" fill="none" xmlns="http://www.w3.org/2000/svg">
<path d="M3.80005 8.77148L8.40184 16.9969V22.0142L3.80543 30.2234L3.80005 8.77148Z" fill="#5B57A2"/>
<path d="M21.469 14.0037L25.781 11.3608L34.6059 11.3525L21.469 19.4003V14.0037Z" fill="#D90751"/>
<path d="M21.4446 8.72287L21.469 19.613L16.8564 16.7789V0.5L21.4449 8.72287H21.4446Z" fill="#FAB718"/>
<path d="M34.6059 11.3525L25.7807 11.3607L21.4446 8.72287L16.8564 0.5L34.6056 11.3525H34.6059Z" fill="#ED6F26"/>
<path d="M21.469 30.269V24.9854L16.8564 22.2051L16.859 38.5001L21.469 30.269Z" fill="#63B22F"/>
<path d="M25.7704 27.6502L8.40153 16.9969L3.80005 8.77148L34.5873 27.6394L25.77 27.6502H25.7704Z" fill="#1487C9"/>
<path d="M16.8594 38.4999L21.4688 30.2688L25.77 27.6499L34.587 27.6392L16.8594 38.4999Z" fill="#017F36"/>
<path d="M3.80542 30.2233L16.8942 22.2053L12.4938 19.5054L8.40183 22.014L3.80542 30.2233Z" fill="#984995"/>
</svg>
