<svg width="32" height="32" viewBox="0 0 32 32" fill="none" xmlns="http://www.w3.org/2000/svg">
<path opacity="0.4" fill-rule="evenodd" clip-rule="evenodd" d="M15.9963 2H16.0037C16.9128 2 17.7597 2 18.5447 2.00665C19.2809 2.01289 19.8728 2.61489 19.8667 3.35124C19.8604 4.0876 19.2584 4.67947 18.522 4.67323C17.7496 4.66668 16.9132 4.66667 16 4.66667C15.0868 4.66667 14.2504 4.66668 13.478 4.67323C12.7416 4.67947 12.1396 4.0876 12.1334 3.35124C12.1271 2.61489 12.719 2.01289 13.4553 2.00665C14.2403 2 15.0872 2 15.9963 2ZM3.35124 12.1334C4.0876 12.1396 4.67947 12.7416 4.67323 13.478C4.66668 14.2504 4.66667 15.0868 4.66667 16C4.66667 16.9133 4.66668 17.7496 4.67323 18.5221C4.67947 19.2585 4.0876 19.8605 3.35124 19.8667C2.61489 19.8729 2.01289 19.2811 2.00665 18.5448C2 17.7599 2 16.9129 2 16.0037V15.9963C2 15.0872 2 14.2403 2.00665 13.4553C2.01289 12.719 2.61489 12.1271 3.35124 12.1334ZM28.6488 12.1334C29.3851 12.1271 29.9871 12.719 29.9933 13.4553C30 14.2404 30 15.0876 30 15.9969V16.0031C30 16.9125 30 17.7596 29.9933 18.5448C29.9871 19.2811 29.3851 19.8729 28.6488 19.8667C27.9124 19.8605 27.3205 19.2585 27.3268 18.5221C27.3333 17.7496 27.3333 16.9133 27.3333 16C27.3333 15.0868 27.3333 14.2504 27.3268 13.478C27.3205 12.7416 27.9124 12.1396 28.6488 12.1334ZM12.1336 28.6488C12.1398 27.9124 12.7418 27.3205 13.4781 27.3268C14.2507 27.3333 15.0868 27.3333 16 27.3333C16.9132 27.3333 17.7496 27.3333 18.522 27.3268C19.2584 27.3205 19.8604 27.9124 19.8667 28.6488C19.8728 29.3851 19.2809 29.9871 18.5447 29.9933C17.7599 30 16.9131 30 16.0041 30H15.9969C15.0876 30 14.2405 30 13.4556 29.9933C12.7192 29.9871 12.1273 29.3851 12.1336 28.6488Z" fill="black"/>
<path fill-rule="evenodd" clip-rule="evenodd" d="M9.7118 3.4257C9.84644 4.14968 9.36871 4.84572 8.64473 4.98036C7.42965 5.20635 6.68973 5.57441 6.13208 6.13208C5.57441 6.68973 5.20635 7.42965 4.98036 8.64473C4.84572 9.36871 4.14968 9.84644 3.4257 9.7118C2.70174 9.57715 2.22401 8.8811 2.35865 8.15714C2.64808 6.60092 3.19166 5.30124 4.24645 4.24645C5.30124 3.19166 6.60092 2.64808 8.15714 2.35865C8.8811 2.22401 9.57715 2.70174 9.7118 3.4257ZM22.2901 3.4257C22.4247 2.70174 23.1208 2.22401 23.8448 2.35865C25.4009 2.64808 26.7007 3.19166 27.7555 4.24645C28.8103 5.30124 29.3537 6.60092 29.6432 8.15714C29.7779 8.8811 29.3001 9.57715 28.5761 9.7118C27.8523 9.84644 27.1561 9.36871 27.0215 8.64473C26.7956 7.42965 26.4275 6.68975 25.8699 6.13208C25.3121 5.57441 24.5723 5.20635 23.3572 4.98036C22.6332 4.84572 22.1555 4.14968 22.2901 3.4257ZM3.4257 22.2901C4.14968 22.1555 4.84572 22.6332 4.98036 23.3572C5.20635 24.5723 5.57441 25.3121 6.13207 25.8699C6.68973 26.4275 7.42965 26.7956 8.64473 27.0215C9.36871 27.1561 9.84644 27.8523 9.7118 28.5761C9.57715 29.3001 8.8811 29.7779 8.15714 29.6432C6.60092 29.3537 5.30124 28.8103 4.24645 27.7555C3.19166 26.7007 2.64808 25.4009 2.35865 23.8448C2.22401 23.1208 2.70174 22.4247 3.4257 22.2901ZM28.5761 22.2901C29.3001 22.4247 29.7779 23.1208 29.6432 23.8448C29.3537 25.4009 28.8103 26.7007 27.7555 27.7555C26.7007 28.8103 25.4009 29.3537 23.8448 29.6432C23.1208 29.7779 22.4247 29.3001 22.2901 28.5761C22.1555 27.8523 22.6332 27.1561 23.3572 27.0215C24.5723 26.7956 25.3121 26.4275 25.8699 25.8699C26.4275 25.3121 26.7956 24.5723 27.0215 23.3572C27.1561 22.6332 27.8523 22.1555 28.5761 22.2901Z" fill="black"/>
</svg>
