<svg width="40" height="40" viewBox="0 0 40 40" fill="none" xmlns="http://www.w3.org/2000/svg">
<path fill-rule="evenodd" clip-rule="evenodd" d="M8.33329 1.66699C9.25376 1.66699 9.99996 2.41319 9.99996 3.33366V6.66699H13.3333C14.2538 6.66699 15 7.41317 15 8.33366C15 9.25412 14.2538 10.0003 13.3333 10.0003H9.99996V13.3337C9.99996 14.2541 9.25376 15.0003 8.33329 15.0003C7.41281 15.0003 6.66663 14.2541 6.66663 13.3337V10.0003H3.33329C2.41283 10.0003 1.66663 9.25412 1.66663 8.33366C1.66663 7.41317 2.41283 6.66699 3.33329 6.66699H6.66663V3.33366C6.66663 2.41319 7.41281 1.66699 8.33329 1.66699Z" fill="black"/>
<path opacity="0.4" fill-rule="evenodd" clip-rule="evenodd" d="M18.3333 8.33366C18.3333 7.41319 19.0795 6.66699 20 6.66699H25C25.9205 6.66699 26.6666 7.41319 26.6666 8.33366C26.6666 9.25413 25.9205 10.0003 25 10.0003H20C19.0795 10.0003 18.3333 9.25413 18.3333 8.33366ZM28.3333 8.33366C28.3333 7.41319 29.0795 6.66699 30 6.66699H30.8333C34.9755 6.66699 38.3333 10.0249 38.3333 14.167V15.0003C38.3333 15.9208 37.5871 16.667 36.6666 16.667C35.7461 16.667 35 15.9208 35 15.0003V14.167C35 11.8658 33.1345 10.0003 30.8333 10.0003H30C29.0795 10.0003 28.3333 9.25413 28.3333 8.33366ZM8.33329 18.3337C9.25376 18.3337 9.99996 19.0798 9.99996 20.0003V25.0003C9.99996 25.9208 9.25376 26.667 8.33329 26.667C7.41283 26.667 6.66663 25.9208 6.66663 25.0003V20.0003C6.66663 19.0798 7.41283 18.3337 8.33329 18.3337ZM36.6666 18.3337C37.5871 18.3337 38.3333 19.0798 38.3333 20.0003V25.0003C38.3333 25.9208 37.5871 26.667 36.6666 26.667C35.7461 26.667 35 25.9208 35 25.0003V20.0003C35 19.0798 35.7461 18.3337 36.6666 18.3337ZM8.33329 28.3337C9.25378 28.3337 9.99996 29.0798 9.99996 30.0003V30.8337C9.99996 33.1348 11.8654 35.0003 14.1666 35.0003H15C15.9204 35.0003 16.6666 35.7465 16.6666 36.667C16.6666 37.5875 15.9204 38.3337 15 38.3337H14.1666C10.0245 38.3337 6.66663 34.9758 6.66663 30.8337V30.0003C6.66663 29.0798 7.41283 28.3337 8.33329 28.3337ZM36.6666 28.3337C37.5871 28.3337 38.3333 29.0798 38.3333 30.0003V30.8337C38.3333 34.9758 34.9755 38.3337 30.8333 38.3337H30C29.0795 38.3337 28.3333 37.5875 28.3333 36.667C28.3333 35.7465 29.0795 35.0003 30 35.0003H30.8333C33.1345 35.0003 35 33.1348 35 30.8337V30.0003C35 29.0798 35.7461 28.3337 36.6666 28.3337ZM18.3333 36.667C18.3333 35.7465 19.0795 35.0003 20 35.0003H25C25.9205 35.0003 26.6666 35.7465 26.6666 36.667C26.6666 37.5875 25.9205 38.3337 25 38.3337H20C19.0795 38.3337 18.3333 37.5875 18.3333 36.667Z" fill="black"/>
</svg>
