<svg width="24" height="25" viewBox="0 0 24 25" fill="none" xmlns="http://www.w3.org/2000/svg">
<path opacity="0.4" d="M12 4.75C9.42944 4.75 7.22595 5.88141 5.52031 7.21298C3.81313 8.54576 2.55126 10.1197 1.84541 11.1095L1.79219 11.1837C1.53904 11.5358 1.25 11.9378 1.25 12.5C1.25 13.0622 1.53904 13.4642 1.79219 13.8163L1.84541 13.8905C2.55126 14.8803 3.81313 16.4542 5.52031 17.787C7.22595 19.1186 9.42944 20.25 12 20.25C14.5706 20.25 16.774 19.1186 18.4797 17.787C20.1869 16.4542 21.4487 14.8803 22.1546 13.8905L22.2078 13.8163C22.461 13.4642 22.75 13.0622 22.75 12.5C22.75 11.9378 22.461 11.5358 22.2078 11.1837L22.1546 11.1095C21.4487 10.1197 20.1869 8.54576 18.4797 7.21298C16.774 5.88141 14.5706 4.75 12 4.75Z" fill="black"/>
<path fill-rule="evenodd" clip-rule="evenodd" d="M12 16C10.067 16 8.5 14.433 8.5 12.5C8.5 10.567 10.067 9 12 9C13.933 9 15.5 10.567 15.5 12.5C15.5 14.433 13.933 16 12 16Z" fill="black"/>
</svg>
