<svg width="25" height="24" viewBox="0 0 25 24" fill="none" xmlns="http://www.w3.org/2000/svg">
<path opacity="0.4" d="M20.0825 15.6564C20.0058 16.9096 19.9449 17.9041 19.8202 18.6984C19.6922 19.5131 19.4874 20.1915 19.0777 20.7849C18.7029 21.3278 18.2204 21.786 17.6608 22.1303C17.0491 22.5067 16.3661 22.6713 15.5531 22.75L9.42739 22.7499C8.6135 22.671 7.92972 22.5061 7.3176 22.129C6.75763 21.7841 6.27494 21.3251 5.90028 20.7813C5.49073 20.1869 5.28656 19.5075 5.15957 18.6917C5.03574 17.8962 4.97623 16.9003 4.90122 15.6453L4.25 4.75H20.75L20.0825 15.6564Z" fill="black"/>
<path fill-rule="evenodd" clip-rule="evenodd" d="M13.8473 1.28277C14.4124 1.33331 14.9435 1.50576 15.3996 1.84591C15.7369 2.09748 15.9712 2.40542 16.1714 2.73893C16.3569 3.04798 16.5437 3.4333 16.7555 3.8704L17.1823 4.7507H21.5C22.0523 4.7507 22.5 5.19842 22.5 5.7507C22.5 6.30299 22.0523 6.7507 21.5 6.7507C15.4998 6.7507 9.50019 6.7507 3.5 6.7507C2.94772 6.7507 2.5 6.30299 2.5 5.7507C2.5 5.19842 2.94772 4.7507 3.5 4.7507H7.90976L8.26556 3.97016C8.47212 3.51696 8.65403 3.11782 8.83676 2.79754C9.03387 2.45207 9.26721 2.13237 9.60861 1.87046C10.0703 1.51626 10.6121 1.33669 11.1899 1.28409C11.6249 1.24449 12.0634 1.24994 12.5 1.25064C13.0108 1.25146 13.47 1.24902 13.8473 1.28277ZM10.1078 4.7507H14.9597C14.733 4.28331 14.588 3.98707 14.4566 3.7682C14.2643 3.44787 14.0339 3.30745 13.6691 3.27482C13.4098 3.25163 13.0719 3.2507 12.5345 3.2507C11.9837 3.2507 11.637 3.25166 11.3712 3.27585C10.9971 3.30991 10.7639 3.45568 10.5739 3.78866C10.4494 4.00687 10.3139 4.29897 10.1078 4.7507Z" fill="black"/>
</svg>
